<?xml version="1.0" standalone="no"?>
<!DOCTYPE svg PUBLIC "-//W3C//DTD SVG 20010904//EN"
 "http://www.w3.org/TR/2001/REC-SVG-20010904/DTD/svg10.dtd">
<svg version="1.0" xmlns="http://www.w3.org/2000/svg"
 width="64.000000pt" height="64.000000pt" viewBox="0 0 64.000000 64.000000"
 preserveAspectRatio="xMidYMid meet">

<g transform="translate(0.000000,64.000000) scale(0.100000,-0.100000)"
fill="#000000" stroke="none">
<path d="M10 621 c0 -10 9 -48 20 -83 21 -69 72 -138 120 -163 25 -13 29 -13
41 2 8 9 31 29 52 44 l38 28 -28 15 c-15 8 -22 15 -15 16 7 0 23 -5 34 -11 28
-15 128 -2 128 16 0 18 -56 64 -106 86 -22 10 -83 25 -135 33 -52 8 -106 19
-121 25 -25 9 -28 8 -28 -8z"/>
<path d="M591 494 c-19 -8 -85 -21 -145 -30 -191 -26 -262 -80 -300 -227 -18
-72 -21 -203 -6 -227 7 -11 10 5 10 51 0 116 67 208 170 234 22 5 21 4 -5 -11
-48 -26 -104 -85 -116 -122 -6 -18 -9 -36 -6 -38 3 -3 22 -1 43 5 22 5 71 14
110 21 143 23 222 99 264 253 28 101 26 110 -19 91z"/>
</g>
</svg>
